# xmcd CD database file
#
# Track frame offsets:
#	150
#	17233
#	47943
#	67973
#	85529
#	114489
#	141716
#	163647
#	175416
#	204340
#	232811
#	255606
#	272718
#
# Disc length: 4020 seconds
#
# Revision: 0
# Processed by: cddbd v1.5.1PL2 Copyright (c) Steve Scherf et al.
# Submitted via: CDex 1.51
#
DISCID=b20fb20d
DTITLE=FES - PSYCHOSCOUT
DYEAR=2006
DGENRE=Jazz
TTITLE0=ANTHEM 2004
TTITLE1=CLUSTERTHING
TTITLE2=GULLS and BUOYS
TTITLE3=EDWARD、WHY DON’T YOU PLAY SOME BLUES
TTITLE4=HILTON’S HEAVEN
TTITLE5=IN BETWEEN RIVERS
TTITLE6=PSYCHOSCOUT
TTITLE7=LIE TO ME
TTITLE8=WITHOUT
TTITLE9=SNAGGLETOOTH
TTITLE10=LAX
TTITLE11=WATERMAN
TTITLE12=ICH、BIN、GEORGE
EXTD=YEAR: 2006
EXTT0=
EXTT1=
EXTT2=
EXTT3=
EXTT4=
EXTT5=
EXTT6=
EXTT7=
EXTT8=
EXTT9=
EXTT10=
EXTT11=
EXTT12=
PLAYORDER=
